<mxfile host="app.diagrams.net" agent="Mozilla/5.0 (Windows NT 10.0; Win64; x64) AppleWebKit/537.36 (KHTML, like Gecko) Chrome/131.0.0.0 Safari/537.36" version="25.0.1">
  <diagram id="C5RBs43oDa-KdzZeNtuy" name="Page-1">
    <mxGraphModel dx="4279" dy="2574" grid="1" gridSize="10" guides="1" tooltips="1" connect="1" arrows="1" fold="1" page="1" pageScale="1" pageWidth="827" pageHeight="1169" math="0" shadow="0">
      <root>
        <mxCell id="WIyWlLk6GJQsqaUBKTNV-0" />
        <mxCell id="WIyWlLk6GJQsqaUBKTNV-1" parent="WIyWlLk6GJQsqaUBKTNV-0" />
        <mxCell id="zkfFHV4jXpPFQw0GAbJ--0" value="DataList" style="swimlane;fontStyle=2;align=center;verticalAlign=top;childLayout=stackLayout;horizontal=1;startSize=26;horizontalStack=0;resizeParent=1;resizeLast=0;collapsible=1;marginBottom=0;rounded=0;shadow=0;strokeWidth=1;" parent="WIyWlLk6GJQsqaUBKTNV-1" vertex="1">
          <mxGeometry x="190" y="270" width="190" height="294" as="geometry">
            <mxRectangle x="230" y="140" width="160" height="26" as="alternateBounds" />
          </mxGeometry>
        </mxCell>
        <mxCell id="zkfFHV4jXpPFQw0GAbJ--1" value="- data" style="text;align=left;verticalAlign=top;spacingLeft=4;spacingRight=4;overflow=hidden;rotatable=0;points=[[0,0.5],[1,0.5]];portConstraint=eastwest;" parent="zkfFHV4jXpPFQw0GAbJ--0" vertex="1">
          <mxGeometry y="26" width="190" height="26" as="geometry" />
        </mxCell>
        <mxCell id="zkfFHV4jXpPFQw0GAbJ--2" value="- selected" style="text;align=left;verticalAlign=top;spacingLeft=4;spacingRight=4;overflow=hidden;rotatable=0;points=[[0,0.5],[1,0.5]];portConstraint=eastwest;rounded=0;shadow=0;html=0;" parent="zkfFHV4jXpPFQw0GAbJ--0" vertex="1">
          <mxGeometry y="52" width="190" height="26" as="geometry" />
        </mxCell>
        <mxCell id="zkfFHV4jXpPFQw0GAbJ--4" value="" style="line;html=1;strokeWidth=1;align=left;verticalAlign=middle;spacingTop=-1;spacingLeft=3;spacingRight=3;rotatable=0;labelPosition=right;points=[];portConstraint=eastwest;" parent="zkfFHV4jXpPFQw0GAbJ--0" vertex="1">
          <mxGeometry y="78" width="190" height="8" as="geometry" />
        </mxCell>
        <mxCell id="zkfFHV4jXpPFQw0GAbJ--5" value="+ select(number)" style="text;align=left;verticalAlign=top;spacingLeft=4;spacingRight=4;overflow=hidden;rotatable=0;points=[[0,0.5],[1,0.5]];portConstraint=eastwest;" parent="zkfFHV4jXpPFQw0GAbJ--0" vertex="1">
          <mxGeometry y="86" width="190" height="26" as="geometry" />
        </mxCell>
        <mxCell id="INUwDgxH_tMxu924iD4P-0" value="+ get_selected()" style="text;align=left;verticalAlign=top;spacingLeft=4;spacingRight=4;overflow=hidden;rotatable=0;points=[[0,0.5],[1,0.5]];portConstraint=eastwest;" vertex="1" parent="zkfFHV4jXpPFQw0GAbJ--0">
          <mxGeometry y="112" width="190" height="26" as="geometry" />
        </mxCell>
        <mxCell id="INUwDgxH_tMxu924iD4P-1" value="+ get_names()" style="text;align=left;verticalAlign=top;spacingLeft=4;spacingRight=4;overflow=hidden;rotatable=0;points=[[0,0.5],[1,0.5]];portConstraint=eastwest;" vertex="1" parent="zkfFHV4jXpPFQw0GAbJ--0">
          <mxGeometry y="138" width="190" height="26" as="geometry" />
        </mxCell>
        <mxCell id="INUwDgxH_tMxu924iD4P-2" value="+ get_data()" style="text;align=left;verticalAlign=top;spacingLeft=4;spacingRight=4;overflow=hidden;rotatable=0;points=[[0,0.5],[1,0.5]];portConstraint=eastwest;" vertex="1" parent="zkfFHV4jXpPFQw0GAbJ--0">
          <mxGeometry y="164" width="190" height="26" as="geometry" />
        </mxCell>
        <mxCell id="INUwDgxH_tMxu924iD4P-3" value="+ data=(data)" style="text;align=left;verticalAlign=top;spacingLeft=4;spacingRight=4;overflow=hidden;rotatable=0;points=[[0,0.5],[1,0.5]];portConstraint=eastwest;" vertex="1" parent="zkfFHV4jXpPFQw0GAbJ--0">
          <mxGeometry y="190" width="190" height="26" as="geometry" />
        </mxCell>
        <mxCell id="INUwDgxH_tMxu924iD4P-4" value="- get_row_of_values_of_object(obj)" style="text;align=left;verticalAlign=top;spacingLeft=4;spacingRight=4;overflow=hidden;rotatable=0;points=[[0,0.5],[1,0.5]];portConstraint=eastwest;" vertex="1" parent="zkfFHV4jXpPFQw0GAbJ--0">
          <mxGeometry y="216" width="190" height="26" as="geometry" />
        </mxCell>
        <mxCell id="INUwDgxH_tMxu924iD4P-214" value="- check_obj_type(obj)" style="text;align=left;verticalAlign=top;spacingLeft=4;spacingRight=4;overflow=hidden;rotatable=0;points=[[0,0.5],[1,0.5]];portConstraint=eastwest;" vertex="1" parent="zkfFHV4jXpPFQw0GAbJ--0">
          <mxGeometry y="242" width="190" height="26" as="geometry" />
        </mxCell>
        <mxCell id="INUwDgxH_tMxu924iD4P-5" value="- check_obj_type(obj)" style="text;align=left;verticalAlign=top;spacingLeft=4;spacingRight=4;overflow=hidden;rotatable=0;points=[[0,0.5],[1,0.5]];portConstraint=eastwest;" vertex="1" parent="zkfFHV4jXpPFQw0GAbJ--0">
          <mxGeometry y="268" width="190" height="26" as="geometry" />
        </mxCell>
        <mxCell id="INUwDgxH_tMxu924iD4P-6" value="DataListStudentShort" style="swimlane;fontStyle=2;align=center;verticalAlign=top;childLayout=stackLayout;horizontal=1;startSize=26;horizontalStack=0;resizeParent=1;resizeLast=0;collapsible=1;marginBottom=0;rounded=0;shadow=0;strokeWidth=1;" vertex="1" parent="WIyWlLk6GJQsqaUBKTNV-1">
          <mxGeometry x="214" y="630" width="200" height="140" as="geometry">
            <mxRectangle x="230" y="140" width="160" height="26" as="alternateBounds" />
          </mxGeometry>
        </mxCell>
        <mxCell id="INUwDgxH_tMxu924iD4P-7" value="-" style="text;align=left;verticalAlign=top;spacingLeft=4;spacingRight=4;overflow=hidden;rotatable=0;points=[[0,0.5],[1,0.5]];portConstraint=eastwest;" vertex="1" parent="INUwDgxH_tMxu924iD4P-6">
          <mxGeometry y="26" width="200" height="26" as="geometry" />
        </mxCell>
        <mxCell id="INUwDgxH_tMxu924iD4P-9" value="" style="line;html=1;strokeWidth=1;align=left;verticalAlign=middle;spacingTop=-1;spacingLeft=3;spacingRight=3;rotatable=0;labelPosition=right;points=[];portConstraint=eastwest;" vertex="1" parent="INUwDgxH_tMxu924iD4P-6">
          <mxGeometry y="52" width="200" height="8" as="geometry" />
        </mxCell>
        <mxCell id="INUwDgxH_tMxu924iD4P-12" value="+ get_names()" style="text;align=left;verticalAlign=top;spacingLeft=4;spacingRight=4;overflow=hidden;rotatable=0;points=[[0,0.5],[1,0.5]];portConstraint=eastwest;" vertex="1" parent="INUwDgxH_tMxu924iD4P-6">
          <mxGeometry y="60" width="200" height="26" as="geometry" />
        </mxCell>
        <mxCell id="INUwDgxH_tMxu924iD4P-13" value="- get_row_of_values_of_object(obj)" style="text;align=left;verticalAlign=top;spacingLeft=4;spacingRight=4;overflow=hidden;rotatable=0;points=[[0,0.5],[1,0.5]];portConstraint=eastwest;" vertex="1" parent="INUwDgxH_tMxu924iD4P-6">
          <mxGeometry y="86" width="200" height="26" as="geometry" />
        </mxCell>
        <mxCell id="INUwDgxH_tMxu924iD4P-16" value="- check_obj_type(obj)" style="text;align=left;verticalAlign=top;spacingLeft=4;spacingRight=4;overflow=hidden;rotatable=0;points=[[0,0.5],[1,0.5]];portConstraint=eastwest;" vertex="1" parent="INUwDgxH_tMxu924iD4P-6">
          <mxGeometry y="112" width="200" height="26" as="geometry" />
        </mxCell>
        <mxCell id="INUwDgxH_tMxu924iD4P-17" value="StudentListSerializer" style="swimlane;fontStyle=2;align=center;verticalAlign=top;childLayout=stackLayout;horizontal=1;startSize=26;horizontalStack=0;resizeParent=1;resizeLast=0;collapsible=1;marginBottom=0;rounded=0;shadow=0;strokeWidth=1;" vertex="1" parent="WIyWlLk6GJQsqaUBKTNV-1">
          <mxGeometry x="-80" y="60" width="220" height="424" as="geometry">
            <mxRectangle x="230" y="140" width="160" height="26" as="alternateBounds" />
          </mxGeometry>
        </mxCell>
        <mxCell id="INUwDgxH_tMxu924iD4P-18" value="- students" style="text;align=left;verticalAlign=top;spacingLeft=4;spacingRight=4;overflow=hidden;rotatable=0;points=[[0,0.5],[1,0.5]];portConstraint=eastwest;" vertex="1" parent="INUwDgxH_tMxu924iD4P-17">
          <mxGeometry y="26" width="220" height="26" as="geometry" />
        </mxCell>
        <mxCell id="INUwDgxH_tMxu924iD4P-19" value="- path" style="text;align=left;verticalAlign=top;spacingLeft=4;spacingRight=4;overflow=hidden;rotatable=0;points=[[0,0.5],[1,0.5]];portConstraint=eastwest;" vertex="1" parent="INUwDgxH_tMxu924iD4P-17">
          <mxGeometry y="52" width="220" height="26" as="geometry" />
        </mxCell>
        <mxCell id="INUwDgxH_tMxu924iD4P-20" value="- serialize_strategy" style="text;align=left;verticalAlign=top;spacingLeft=4;spacingRight=4;overflow=hidden;rotatable=0;points=[[0,0.5],[1,0.5]];portConstraint=eastwest;" vertex="1" parent="INUwDgxH_tMxu924iD4P-17">
          <mxGeometry y="78" width="220" height="26" as="geometry" />
        </mxCell>
        <mxCell id="INUwDgxH_tMxu924iD4P-21" value="" style="line;html=1;strokeWidth=1;align=left;verticalAlign=middle;spacingTop=-1;spacingLeft=3;spacingRight=3;rotatable=0;labelPosition=right;points=[];portConstraint=eastwest;" vertex="1" parent="INUwDgxH_tMxu924iD4P-17">
          <mxGeometry y="104" width="220" height="8" as="geometry" />
        </mxCell>
        <mxCell id="INUwDgxH_tMxu924iD4P-22" value="+ initalize(path,serialize_strategy)" style="text;align=left;verticalAlign=top;spacingLeft=4;spacingRight=4;overflow=hidden;rotatable=0;points=[[0,0.5],[1,0.5]];portConstraint=eastwest;" vertex="1" parent="INUwDgxH_tMxu924iD4P-17">
          <mxGeometry y="112" width="220" height="26" as="geometry" />
        </mxCell>
        <mxCell id="INUwDgxH_tMxu924iD4P-23" value="+ read_from_file()" style="text;align=left;verticalAlign=top;spacingLeft=4;spacingRight=4;overflow=hidden;rotatable=0;points=[[0,0.5],[1,0.5]];portConstraint=eastwest;" vertex="1" parent="INUwDgxH_tMxu924iD4P-17">
          <mxGeometry y="138" width="220" height="26" as="geometry" />
        </mxCell>
        <mxCell id="INUwDgxH_tMxu924iD4P-24" value="+ write_to_file()" style="text;align=left;verticalAlign=top;spacingLeft=4;spacingRight=4;overflow=hidden;rotatable=0;points=[[0,0.5],[1,0.5]];portConstraint=eastwest;" vertex="1" parent="INUwDgxH_tMxu924iD4P-17">
          <mxGeometry y="164" width="220" height="26" as="geometry" />
        </mxCell>
        <mxCell id="INUwDgxH_tMxu924iD4P-25" value="+ get_student_by_id(id)" style="text;align=left;verticalAlign=top;spacingLeft=4;spacingRight=4;overflow=hidden;rotatable=0;points=[[0,0.5],[1,0.5]];portConstraint=eastwest;" vertex="1" parent="INUwDgxH_tMxu924iD4P-17">
          <mxGeometry y="190" width="220" height="26" as="geometry" />
        </mxCell>
        <mxCell id="INUwDgxH_tMxu924iD4P-26" value="+ get_student_short_list(elems,pages)" style="text;align=left;verticalAlign=top;spacingLeft=4;spacingRight=4;overflow=hidden;rotatable=0;points=[[0,0.5],[1,0.5]];portConstraint=eastwest;" vertex="1" parent="INUwDgxH_tMxu924iD4P-17">
          <mxGeometry y="216" width="220" height="26" as="geometry" />
        </mxCell>
        <mxCell id="INUwDgxH_tMxu924iD4P-27" value="+ sort_by_surname_initials()" style="text;align=left;verticalAlign=top;spacingLeft=4;spacingRight=4;overflow=hidden;rotatable=0;points=[[0,0.5],[1,0.5]];portConstraint=eastwest;" vertex="1" parent="INUwDgxH_tMxu924iD4P-17">
          <mxGeometry y="242" width="220" height="26" as="geometry" />
        </mxCell>
        <mxCell id="INUwDgxH_tMxu924iD4P-28" value="+ add_student_in_list(student)" style="text;align=left;verticalAlign=top;spacingLeft=4;spacingRight=4;overflow=hidden;rotatable=0;points=[[0,0.5],[1,0.5]];portConstraint=eastwest;" vertex="1" parent="INUwDgxH_tMxu924iD4P-17">
          <mxGeometry y="268" width="220" height="26" as="geometry" />
        </mxCell>
        <mxCell id="INUwDgxH_tMxu924iD4P-29" value="+ change_by_id(id,student)" style="text;align=left;verticalAlign=top;spacingLeft=4;spacingRight=4;overflow=hidden;rotatable=0;points=[[0,0.5],[1,0.5]];portConstraint=eastwest;" vertex="1" parent="INUwDgxH_tMxu924iD4P-17">
          <mxGeometry y="294" width="220" height="26" as="geometry" />
        </mxCell>
        <mxCell id="INUwDgxH_tMxu924iD4P-30" value="+ delete(id)" style="text;align=left;verticalAlign=top;spacingLeft=4;spacingRight=4;overflow=hidden;rotatable=0;points=[[0,0.5],[1,0.5]];portConstraint=eastwest;" vertex="1" parent="INUwDgxH_tMxu924iD4P-17">
          <mxGeometry y="320" width="220" height="26" as="geometry" />
        </mxCell>
        <mxCell id="INUwDgxH_tMxu924iD4P-31" value="+ get_student_count()" style="text;align=left;verticalAlign=top;spacingLeft=4;spacingRight=4;overflow=hidden;rotatable=0;points=[[0,0.5],[1,0.5]];portConstraint=eastwest;" vertex="1" parent="INUwDgxH_tMxu924iD4P-17">
          <mxGeometry y="346" width="220" height="26" as="geometry" />
        </mxCell>
        <mxCell id="INUwDgxH_tMxu924iD4P-32" value="- parse_to_student(data)" style="text;align=left;verticalAlign=top;spacingLeft=4;spacingRight=4;overflow=hidden;rotatable=0;points=[[0,0.5],[1,0.5]];portConstraint=eastwest;" vertex="1" parent="INUwDgxH_tMxu924iD4P-17">
          <mxGeometry y="372" width="220" height="26" as="geometry" />
        </mxCell>
        <mxCell id="INUwDgxH_tMxu924iD4P-33" value="- parse_to_format(students)" style="text;align=left;verticalAlign=top;spacingLeft=4;spacingRight=4;overflow=hidden;rotatable=0;points=[[0,0.5],[1,0.5]];portConstraint=eastwest;" vertex="1" parent="INUwDgxH_tMxu924iD4P-17">
          <mxGeometry y="398" width="220" height="26" as="geometry" />
        </mxCell>
        <mxCell id="INUwDgxH_tMxu924iD4P-44" value="StudentSerializeStrategy" style="swimlane;fontStyle=2;align=center;verticalAlign=top;childLayout=stackLayout;horizontal=1;startSize=26;horizontalStack=0;resizeParent=1;resizeLast=0;collapsible=1;marginBottom=0;rounded=0;shadow=0;strokeWidth=1;" vertex="1" parent="WIyWlLk6GJQsqaUBKTNV-1">
          <mxGeometry x="-490" y="180" width="220" height="112" as="geometry">
            <mxRectangle x="230" y="140" width="160" height="26" as="alternateBounds" />
          </mxGeometry>
        </mxCell>
        <mxCell id="INUwDgxH_tMxu924iD4P-45" value="- " style="text;align=left;verticalAlign=top;spacingLeft=4;spacingRight=4;overflow=hidden;rotatable=0;points=[[0,0.5],[1,0.5]];portConstraint=eastwest;" vertex="1" parent="INUwDgxH_tMxu924iD4P-44">
          <mxGeometry y="26" width="220" height="26" as="geometry" />
        </mxCell>
        <mxCell id="INUwDgxH_tMxu924iD4P-46" value="" style="line;html=1;strokeWidth=1;align=left;verticalAlign=middle;spacingTop=-1;spacingLeft=3;spacingRight=3;rotatable=0;labelPosition=right;points=[];portConstraint=eastwest;" vertex="1" parent="INUwDgxH_tMxu924iD4P-44">
          <mxGeometry y="52" width="220" height="8" as="geometry" />
        </mxCell>
        <mxCell id="INUwDgxH_tMxu924iD4P-47" value="+ parse_to_student(data)" style="text;align=left;verticalAlign=top;spacingLeft=4;spacingRight=4;overflow=hidden;rotatable=0;points=[[0,0.5],[1,0.5]];portConstraint=eastwest;fontStyle=3" vertex="1" parent="INUwDgxH_tMxu924iD4P-44">
          <mxGeometry y="60" width="220" height="26" as="geometry" />
        </mxCell>
        <mxCell id="INUwDgxH_tMxu924iD4P-48" value="+ parse_to_format(students)" style="text;align=left;verticalAlign=top;spacingLeft=4;spacingRight=4;overflow=hidden;rotatable=0;points=[[0,0.5],[1,0.5]];portConstraint=eastwest;fontStyle=3" vertex="1" parent="INUwDgxH_tMxu924iD4P-44">
          <mxGeometry y="86" width="220" height="26" as="geometry" />
        </mxCell>
        <mxCell id="INUwDgxH_tMxu924iD4P-50" value="StudentSerializeJsonStrategy" style="swimlane;fontStyle=2;align=center;verticalAlign=top;childLayout=stackLayout;horizontal=1;startSize=26;horizontalStack=0;resizeParent=1;resizeLast=0;collapsible=1;marginBottom=0;rounded=0;shadow=0;strokeWidth=1;" vertex="1" parent="WIyWlLk6GJQsqaUBKTNV-1">
          <mxGeometry x="-610" y="370" width="220" height="112" as="geometry">
            <mxRectangle x="230" y="140" width="160" height="26" as="alternateBounds" />
          </mxGeometry>
        </mxCell>
        <mxCell id="INUwDgxH_tMxu924iD4P-51" value="- " style="text;align=left;verticalAlign=top;spacingLeft=4;spacingRight=4;overflow=hidden;rotatable=0;points=[[0,0.5],[1,0.5]];portConstraint=eastwest;" vertex="1" parent="INUwDgxH_tMxu924iD4P-50">
          <mxGeometry y="26" width="220" height="26" as="geometry" />
        </mxCell>
        <mxCell id="INUwDgxH_tMxu924iD4P-52" value="" style="line;html=1;strokeWidth=1;align=left;verticalAlign=middle;spacingTop=-1;spacingLeft=3;spacingRight=3;rotatable=0;labelPosition=right;points=[];portConstraint=eastwest;" vertex="1" parent="INUwDgxH_tMxu924iD4P-50">
          <mxGeometry y="52" width="220" height="8" as="geometry" />
        </mxCell>
        <mxCell id="INUwDgxH_tMxu924iD4P-53" value="+ parse_to_student(data)" style="text;align=left;verticalAlign=top;spacingLeft=4;spacingRight=4;overflow=hidden;rotatable=0;points=[[0,0.5],[1,0.5]];portConstraint=eastwest;fontStyle=0" vertex="1" parent="INUwDgxH_tMxu924iD4P-50">
          <mxGeometry y="60" width="220" height="26" as="geometry" />
        </mxCell>
        <mxCell id="INUwDgxH_tMxu924iD4P-54" value="+ parse_to_format(students)" style="text;align=left;verticalAlign=top;spacingLeft=4;spacingRight=4;overflow=hidden;rotatable=0;points=[[0,0.5],[1,0.5]];portConstraint=eastwest;fontStyle=0" vertex="1" parent="INUwDgxH_tMxu924iD4P-50">
          <mxGeometry y="86" width="220" height="26" as="geometry" />
        </mxCell>
        <mxCell id="INUwDgxH_tMxu924iD4P-56" value="StudentSerializeYamlStrategy" style="swimlane;fontStyle=2;align=center;verticalAlign=top;childLayout=stackLayout;horizontal=1;startSize=26;horizontalStack=0;resizeParent=1;resizeLast=0;collapsible=1;marginBottom=0;rounded=0;shadow=0;strokeWidth=1;" vertex="1" parent="WIyWlLk6GJQsqaUBKTNV-1">
          <mxGeometry x="-330" y="370" width="220" height="112" as="geometry">
            <mxRectangle x="230" y="140" width="160" height="26" as="alternateBounds" />
          </mxGeometry>
        </mxCell>
        <mxCell id="INUwDgxH_tMxu924iD4P-57" value="- " style="text;align=left;verticalAlign=top;spacingLeft=4;spacingRight=4;overflow=hidden;rotatable=0;points=[[0,0.5],[1,0.5]];portConstraint=eastwest;" vertex="1" parent="INUwDgxH_tMxu924iD4P-56">
          <mxGeometry y="26" width="220" height="26" as="geometry" />
        </mxCell>
        <mxCell id="INUwDgxH_tMxu924iD4P-58" value="" style="line;html=1;strokeWidth=1;align=left;verticalAlign=middle;spacingTop=-1;spacingLeft=3;spacingRight=3;rotatable=0;labelPosition=right;points=[];portConstraint=eastwest;" vertex="1" parent="INUwDgxH_tMxu924iD4P-56">
          <mxGeometry y="52" width="220" height="8" as="geometry" />
        </mxCell>
        <mxCell id="INUwDgxH_tMxu924iD4P-59" value="+ parse_to_student(data)" style="text;align=left;verticalAlign=top;spacingLeft=4;spacingRight=4;overflow=hidden;rotatable=0;points=[[0,0.5],[1,0.5]];portConstraint=eastwest;fontStyle=0" vertex="1" parent="INUwDgxH_tMxu924iD4P-56">
          <mxGeometry y="60" width="220" height="26" as="geometry" />
        </mxCell>
        <mxCell id="INUwDgxH_tMxu924iD4P-60" value="+ parse_to_format(students)" style="text;align=left;verticalAlign=top;spacingLeft=4;spacingRight=4;overflow=hidden;rotatable=0;points=[[0,0.5],[1,0.5]];portConstraint=eastwest;fontStyle=0" vertex="1" parent="INUwDgxH_tMxu924iD4P-56">
          <mxGeometry y="86" width="220" height="26" as="geometry" />
        </mxCell>
        <mxCell id="INUwDgxH_tMxu924iD4P-105" value="StudentListDB" style="swimlane;fontStyle=2;align=center;verticalAlign=top;childLayout=stackLayout;horizontal=1;startSize=26;horizontalStack=0;resizeParent=1;resizeLast=0;collapsible=1;marginBottom=0;rounded=0;shadow=0;strokeWidth=1;" vertex="1" parent="WIyWlLk6GJQsqaUBKTNV-1">
          <mxGeometry x="-810" y="517" width="220" height="190" as="geometry">
            <mxRectangle x="230" y="140" width="160" height="26" as="alternateBounds" />
          </mxGeometry>
        </mxCell>
        <mxCell id="INUwDgxH_tMxu924iD4P-106" value="- student_repository" style="text;align=left;verticalAlign=top;spacingLeft=4;spacingRight=4;overflow=hidden;rotatable=0;points=[[0,0.5],[1,0.5]];portConstraint=eastwest;fontStyle=0" vertex="1" parent="INUwDgxH_tMxu924iD4P-105">
          <mxGeometry y="26" width="220" height="26" as="geometry" />
        </mxCell>
        <mxCell id="INUwDgxH_tMxu924iD4P-107" value="" style="line;html=1;strokeWidth=1;align=left;verticalAlign=middle;spacingTop=-1;spacingLeft=3;spacingRight=3;rotatable=0;labelPosition=right;points=[];portConstraint=eastwest;" vertex="1" parent="INUwDgxH_tMxu924iD4P-105">
          <mxGeometry y="52" width="220" height="8" as="geometry" />
        </mxCell>
        <mxCell id="INUwDgxH_tMxu924iD4P-108" value="+ get_student_by_id(id)" style="text;align=left;verticalAlign=top;spacingLeft=4;spacingRight=4;overflow=hidden;rotatable=0;points=[[0,0.5],[1,0.5]];portConstraint=eastwest;" vertex="1" parent="INUwDgxH_tMxu924iD4P-105">
          <mxGeometry y="60" width="220" height="26" as="geometry" />
        </mxCell>
        <mxCell id="INUwDgxH_tMxu924iD4P-109" value="+ get_student_short_list(elems,pages)" style="text;align=left;verticalAlign=top;spacingLeft=4;spacingRight=4;overflow=hidden;rotatable=0;points=[[0,0.5],[1,0.5]];portConstraint=eastwest;" vertex="1" parent="INUwDgxH_tMxu924iD4P-105">
          <mxGeometry y="86" width="220" height="26" as="geometry" />
        </mxCell>
        <mxCell id="INUwDgxH_tMxu924iD4P-110" value="+ add_student_in_list(student)" style="text;align=left;verticalAlign=top;spacingLeft=4;spacingRight=4;overflow=hidden;rotatable=0;points=[[0,0.5],[1,0.5]];portConstraint=eastwest;" vertex="1" parent="INUwDgxH_tMxu924iD4P-105">
          <mxGeometry y="112" width="220" height="26" as="geometry" />
        </mxCell>
        <mxCell id="INUwDgxH_tMxu924iD4P-111" value="+ change_by_id(id,student)" style="text;align=left;verticalAlign=top;spacingLeft=4;spacingRight=4;overflow=hidden;rotatable=0;points=[[0,0.5],[1,0.5]];portConstraint=eastwest;" vertex="1" parent="INUwDgxH_tMxu924iD4P-105">
          <mxGeometry y="138" width="220" height="26" as="geometry" />
        </mxCell>
        <mxCell id="INUwDgxH_tMxu924iD4P-112" value="+ delete(id)" style="text;align=left;verticalAlign=top;spacingLeft=4;spacingRight=4;overflow=hidden;rotatable=0;points=[[0,0.5],[1,0.5]];portConstraint=eastwest;" vertex="1" parent="INUwDgxH_tMxu924iD4P-105">
          <mxGeometry y="164" width="220" height="26" as="geometry" />
        </mxCell>
        <mxCell id="INUwDgxH_tMxu924iD4P-113" value="StudentRepository" style="swimlane;fontStyle=2;align=center;verticalAlign=top;childLayout=stackLayout;horizontal=1;startSize=26;horizontalStack=0;resizeParent=1;resizeLast=0;collapsible=1;marginBottom=0;rounded=0;shadow=0;strokeWidth=1;" vertex="1" parent="WIyWlLk6GJQsqaUBKTNV-1">
          <mxGeometry x="-450" y="517" width="220" height="216" as="geometry">
            <mxRectangle x="230" y="140" width="160" height="26" as="alternateBounds" />
          </mxGeometry>
        </mxCell>
        <mxCell id="INUwDgxH_tMxu924iD4P-114" value="- instance" style="text;align=left;verticalAlign=top;spacingLeft=4;spacingRight=4;overflow=hidden;rotatable=0;points=[[0,0.5],[1,0.5]];portConstraint=eastwest;fontStyle=0" vertex="1" parent="INUwDgxH_tMxu924iD4P-113">
          <mxGeometry y="26" width="220" height="26" as="geometry" />
        </mxCell>
        <mxCell id="INUwDgxH_tMxu924iD4P-115" value="" style="line;html=1;strokeWidth=1;align=left;verticalAlign=middle;spacingTop=-1;spacingLeft=3;spacingRight=3;rotatable=0;labelPosition=right;points=[];portConstraint=eastwest;" vertex="1" parent="INUwDgxH_tMxu924iD4P-113">
          <mxGeometry y="52" width="220" height="8" as="geometry" />
        </mxCell>
        <mxCell id="INUwDgxH_tMxu924iD4P-116" value="+ instance(db_config)" style="text;align=left;verticalAlign=top;spacingLeft=4;spacingRight=4;overflow=hidden;rotatable=0;points=[[0,0.5],[1,0.5]];portConstraint=eastwest;fontStyle=4" vertex="1" parent="INUwDgxH_tMxu924iD4P-113">
          <mxGeometry y="60" width="220" height="26" as="geometry" />
        </mxCell>
        <mxCell id="INUwDgxH_tMxu924iD4P-117" value="+ get_student_by_id(id)" style="text;align=left;verticalAlign=top;spacingLeft=4;spacingRight=4;overflow=hidden;rotatable=0;points=[[0,0.5],[1,0.5]];portConstraint=eastwest;" vertex="1" parent="INUwDgxH_tMxu924iD4P-113">
          <mxGeometry y="86" width="220" height="26" as="geometry" />
        </mxCell>
        <mxCell id="INUwDgxH_tMxu924iD4P-118" value="+ get_student_short_list(elems,pages)" style="text;align=left;verticalAlign=top;spacingLeft=4;spacingRight=4;overflow=hidden;rotatable=0;points=[[0,0.5],[1,0.5]];portConstraint=eastwest;" vertex="1" parent="INUwDgxH_tMxu924iD4P-113">
          <mxGeometry y="112" width="220" height="26" as="geometry" />
        </mxCell>
        <mxCell id="INUwDgxH_tMxu924iD4P-119" value="+ add_student_in_list(student)" style="text;align=left;verticalAlign=top;spacingLeft=4;spacingRight=4;overflow=hidden;rotatable=0;points=[[0,0.5],[1,0.5]];portConstraint=eastwest;" vertex="1" parent="INUwDgxH_tMxu924iD4P-113">
          <mxGeometry y="138" width="220" height="26" as="geometry" />
        </mxCell>
        <mxCell id="INUwDgxH_tMxu924iD4P-120" value="+ change_by_id(id,student)" style="text;align=left;verticalAlign=top;spacingLeft=4;spacingRight=4;overflow=hidden;rotatable=0;points=[[0,0.5],[1,0.5]];portConstraint=eastwest;" vertex="1" parent="INUwDgxH_tMxu924iD4P-113">
          <mxGeometry y="164" width="220" height="26" as="geometry" />
        </mxCell>
        <mxCell id="INUwDgxH_tMxu924iD4P-121" value="+ delete(id)" style="text;align=left;verticalAlign=top;spacingLeft=4;spacingRight=4;overflow=hidden;rotatable=0;points=[[0,0.5],[1,0.5]];portConstraint=eastwest;" vertex="1" parent="INUwDgxH_tMxu924iD4P-113">
          <mxGeometry y="190" width="220" height="26" as="geometry" />
        </mxCell>
        <mxCell id="INUwDgxH_tMxu924iD4P-124" value="Student" style="swimlane;fontStyle=2;align=center;verticalAlign=top;childLayout=stackLayout;horizontal=1;startSize=26;horizontalStack=0;resizeParent=1;resizeLast=0;collapsible=1;marginBottom=0;rounded=0;shadow=0;strokeWidth=1;" vertex="1" parent="WIyWlLk6GJQsqaUBKTNV-1">
          <mxGeometry x="-480" y="770" width="330" height="480" as="geometry">
            <mxRectangle x="230" y="140" width="160" height="26" as="alternateBounds" />
          </mxGeometry>
        </mxCell>
        <mxCell id="INUwDgxH_tMxu924iD4P-125" value=" - id: integer" style="text;align=left;verticalAlign=top;spacingLeft=4;spacingRight=4;overflow=hidden;rotatable=0;points=[[0,0.5],[1,0.5]];portConstraint=eastwest;" vertex="1" parent="INUwDgxH_tMxu924iD4P-124">
          <mxGeometry y="26" width="330" height="20" as="geometry" />
        </mxCell>
        <mxCell id="INUwDgxH_tMxu924iD4P-126" value="- surname: string" style="text;align=left;verticalAlign=top;spacingLeft=4;spacingRight=4;overflow=hidden;rotatable=0;points=[[0,0.5],[1,0.5]];portConstraint=eastwest;" vertex="1" parent="INUwDgxH_tMxu924iD4P-124">
          <mxGeometry y="46" width="330" height="24" as="geometry" />
        </mxCell>
        <mxCell id="INUwDgxH_tMxu924iD4P-127" value="-  first_name:  string" style="text;align=left;verticalAlign=top;spacingLeft=4;spacingRight=4;overflow=hidden;rotatable=0;points=[[0,0.5],[1,0.5]];portConstraint=eastwest;" vertex="1" parent="INUwDgxH_tMxu924iD4P-124">
          <mxGeometry y="70" width="330" height="18" as="geometry" />
        </mxCell>
        <mxCell id="INUwDgxH_tMxu924iD4P-128" value=" - last_name : string" style="text;align=left;verticalAlign=top;spacingLeft=4;spacingRight=4;overflow=hidden;rotatable=0;points=[[0,0.5],[1,0.5]];portConstraint=eastwest;" vertex="1" parent="INUwDgxH_tMxu924iD4P-124">
          <mxGeometry y="88" width="330" height="22" as="geometry" />
        </mxCell>
        <mxCell id="INUwDgxH_tMxu924iD4P-129" value=" - phone : string" style="text;align=left;verticalAlign=top;spacingLeft=4;spacingRight=4;overflow=hidden;rotatable=0;points=[[0,0.5],[1,0.5]];portConstraint=eastwest;" vertex="1" parent="INUwDgxH_tMxu924iD4P-124">
          <mxGeometry y="110" width="330" height="20" as="geometry" />
        </mxCell>
        <mxCell id="INUwDgxH_tMxu924iD4P-130" value=" - telegram : string" style="text;align=left;verticalAlign=top;spacingLeft=4;spacingRight=4;overflow=hidden;rotatable=0;points=[[0,0.5],[1,0.5]];portConstraint=eastwest;" vertex="1" parent="INUwDgxH_tMxu924iD4P-124">
          <mxGeometry y="130" width="330" height="24" as="geometry" />
        </mxCell>
        <mxCell id="INUwDgxH_tMxu924iD4P-131" value=" - email : string" style="text;align=left;verticalAlign=top;spacingLeft=4;spacingRight=4;overflow=hidden;rotatable=0;points=[[0,0.5],[1,0.5]];portConstraint=eastwest;" vertex="1" parent="INUwDgxH_tMxu924iD4P-124">
          <mxGeometry y="154" width="330" height="24" as="geometry" />
        </mxCell>
        <mxCell id="INUwDgxH_tMxu924iD4P-132" value=" - github : string&#xa;" style="text;align=left;verticalAlign=top;spacingLeft=4;spacingRight=4;overflow=hidden;rotatable=0;points=[[0,0.5],[1,0.5]];portConstraint=eastwest;" vertex="1" parent="INUwDgxH_tMxu924iD4P-124">
          <mxGeometry y="178" width="330" height="26" as="geometry" />
        </mxCell>
        <mxCell id="INUwDgxH_tMxu924iD4P-133" value=" + surname=(surname: string)" style="text;align=left;verticalAlign=top;spacingLeft=4;spacingRight=4;overflow=hidden;rotatable=0;points=[[0,0.5],[1,0.5]];portConstraint=eastwest;fontSize=10;" vertex="1" parent="INUwDgxH_tMxu924iD4P-124">
          <mxGeometry y="204" width="330" height="16" as="geometry" />
        </mxCell>
        <mxCell id="INUwDgxH_tMxu924iD4P-134" value=" + first_name = (first_name: string)" style="text;align=left;verticalAlign=top;spacingLeft=4;spacingRight=4;overflow=hidden;rotatable=0;points=[[0,0.5],[1,0.5]];portConstraint=eastwest;fontSize=10;" vertex="1" parent="INUwDgxH_tMxu924iD4P-124">
          <mxGeometry y="220" width="330" height="20" as="geometry" />
        </mxCell>
        <mxCell id="INUwDgxH_tMxu924iD4P-135" value=" + last_name = (last_name: string)" style="text;align=left;verticalAlign=top;spacingLeft=4;spacingRight=4;overflow=hidden;rotatable=0;points=[[0,0.5],[1,0.5]];portConstraint=eastwest;fontSize=10;" vertex="1" parent="INUwDgxH_tMxu924iD4P-124">
          <mxGeometry y="240" width="330" height="20" as="geometry" />
        </mxCell>
        <mxCell id="INUwDgxH_tMxu924iD4P-136" value=" + set_contacts = (contacts: hash)" style="text;align=left;verticalAlign=top;spacingLeft=4;spacingRight=4;overflow=hidden;rotatable=0;points=[[0,0.5],[1,0.5]];portConstraint=eastwest;fontSize=10;" vertex="1" parent="INUwDgxH_tMxu924iD4P-124">
          <mxGeometry y="260" width="330" height="20" as="geometry" />
        </mxCell>
        <mxCell id="INUwDgxH_tMxu924iD4P-137" value=" + to_s()" style="text;align=left;verticalAlign=top;spacingLeft=4;spacingRight=4;overflow=hidden;rotatable=0;points=[[0,0.5],[1,0.5]];portConstraint=eastwest;fontSize=10;" vertex="1" parent="INUwDgxH_tMxu924iD4P-124">
          <mxGeometry y="280" width="330" height="20" as="geometry" />
        </mxCell>
        <mxCell id="INUwDgxH_tMxu924iD4P-138" value=" + get_info(): string" style="text;align=left;verticalAlign=top;spacingLeft=4;spacingRight=4;overflow=hidden;rotatable=0;points=[[0,0.5],[1,0.5]];portConstraint=eastwest;fontSize=10;" vertex="1" parent="INUwDgxH_tMxu924iD4P-124">
          <mxGeometry y="300" width="330" height="20" as="geometry" />
        </mxCell>
        <mxCell id="INUwDgxH_tMxu924iD4P-139" value=" + surname_initials(): string" style="text;align=left;verticalAlign=top;spacingLeft=4;spacingRight=4;overflow=hidden;rotatable=0;points=[[0,0.5],[1,0.5]];portConstraint=eastwest;fontSize=10;" vertex="1" parent="INUwDgxH_tMxu924iD4P-124">
          <mxGeometry y="320" width="330" height="20" as="geometry" />
        </mxCell>
        <mxCell id="INUwDgxH_tMxu924iD4P-140" value=" + contact():string" style="text;align=left;verticalAlign=top;spacingLeft=4;spacingRight=4;overflow=hidden;rotatable=0;points=[[0,0.5],[1,0.5]];portConstraint=eastwest;fontSize=10;" vertex="1" parent="INUwDgxH_tMxu924iD4P-124">
          <mxGeometry y="340" width="330" height="20" as="geometry" />
        </mxCell>
        <mxCell id="INUwDgxH_tMxu924iD4P-141" value="" style="endArrow=none;html=1;rounded=0;exitX=-0.005;exitY=0.098;exitDx=0;exitDy=0;exitPerimeter=0;entryX=1;entryY=1.072;entryDx=0;entryDy=0;entryPerimeter=0;" edge="1" parent="INUwDgxH_tMxu924iD4P-124" source="INUwDgxH_tMxu924iD4P-133" target="INUwDgxH_tMxu924iD4P-132">
          <mxGeometry width="50" height="50" relative="1" as="geometry">
            <mxPoint x="190" y="250" as="sourcePoint" />
            <mxPoint x="240" y="200" as="targetPoint" />
          </mxGeometry>
        </mxCell>
        <mxCell id="INUwDgxH_tMxu924iD4P-142" value=" + first_name" style="text;align=left;verticalAlign=top;spacingLeft=4;spacingRight=4;overflow=hidden;rotatable=0;points=[[0,0.5],[1,0.5]];portConstraint=eastwest;fontSize=10;" vertex="1" parent="INUwDgxH_tMxu924iD4P-124">
          <mxGeometry y="360" width="330" height="20" as="geometry" />
        </mxCell>
        <mxCell id="INUwDgxH_tMxu924iD4P-143" value=" + surname" style="text;align=left;verticalAlign=top;spacingLeft=4;spacingRight=4;overflow=hidden;rotatable=0;points=[[0,0.5],[1,0.5]];portConstraint=eastwest;fontSize=10;" vertex="1" parent="INUwDgxH_tMxu924iD4P-124">
          <mxGeometry y="380" width="330" height="20" as="geometry" />
        </mxCell>
        <mxCell id="INUwDgxH_tMxu924iD4P-144" value=" + last_name" style="text;align=left;verticalAlign=top;spacingLeft=4;spacingRight=4;overflow=hidden;rotatable=0;points=[[0,0.5],[1,0.5]];portConstraint=eastwest;fontSize=10;" vertex="1" parent="INUwDgxH_tMxu924iD4P-124">
          <mxGeometry y="400" width="330" height="20" as="geometry" />
        </mxCell>
        <mxCell id="INUwDgxH_tMxu924iD4P-145" value=" + email" style="text;align=left;verticalAlign=top;spacingLeft=4;spacingRight=4;overflow=hidden;rotatable=0;points=[[0,0.5],[1,0.5]];portConstraint=eastwest;fontSize=10;" vertex="1" parent="INUwDgxH_tMxu924iD4P-124">
          <mxGeometry y="420" width="330" height="20" as="geometry" />
        </mxCell>
        <mxCell id="INUwDgxH_tMxu924iD4P-146" value=" + telegram" style="text;align=left;verticalAlign=top;spacingLeft=4;spacingRight=4;overflow=hidden;rotatable=0;points=[[0,0.5],[1,0.5]];portConstraint=eastwest;fontSize=10;" vertex="1" parent="INUwDgxH_tMxu924iD4P-124">
          <mxGeometry y="440" width="330" height="20" as="geometry" />
        </mxCell>
        <mxCell id="INUwDgxH_tMxu924iD4P-147" value=" + phone" style="text;align=left;verticalAlign=top;spacingLeft=4;spacingRight=4;overflow=hidden;rotatable=0;points=[[0,0.5],[1,0.5]];portConstraint=eastwest;fontSize=10;" vertex="1" parent="INUwDgxH_tMxu924iD4P-124">
          <mxGeometry y="460" width="330" height="20" as="geometry" />
        </mxCell>
        <mxCell id="INUwDgxH_tMxu924iD4P-148" value="Person" style="swimlane;fontStyle=1;align=center;verticalAlign=top;childLayout=stackLayout;horizontal=1;startSize=26;horizontalStack=0;resizeParent=1;resizeParentMax=0;resizeLast=0;collapsible=1;marginBottom=0;whiteSpace=wrap;html=1;" vertex="1" parent="WIyWlLk6GJQsqaUBKTNV-1">
          <mxGeometry x="-60" y="910" width="160" height="190" as="geometry" />
        </mxCell>
        <mxCell id="INUwDgxH_tMxu924iD4P-149" value="- id: integer&lt;div&gt;&lt;br&gt;&lt;/div&gt;" style="text;strokeColor=none;fillColor=none;align=left;verticalAlign=top;spacingLeft=4;spacingRight=4;overflow=hidden;rotatable=0;points=[[0,0.5],[1,0.5]];portConstraint=eastwest;whiteSpace=wrap;html=1;" vertex="1" parent="INUwDgxH_tMxu924iD4P-148">
          <mxGeometry y="26" width="160" height="26" as="geometry" />
        </mxCell>
        <mxCell id="INUwDgxH_tMxu924iD4P-150" value="&lt;div&gt;- github: string&lt;/div&gt;" style="text;strokeColor=none;fillColor=none;align=left;verticalAlign=top;spacingLeft=4;spacingRight=4;overflow=hidden;rotatable=0;points=[[0,0.5],[1,0.5]];portConstraint=eastwest;whiteSpace=wrap;html=1;" vertex="1" parent="INUwDgxH_tMxu924iD4P-148">
          <mxGeometry y="52" width="160" height="26" as="geometry" />
        </mxCell>
        <mxCell id="INUwDgxH_tMxu924iD4P-151" value="" style="line;strokeWidth=1;fillColor=none;align=left;verticalAlign=middle;spacingTop=-1;spacingLeft=3;spacingRight=3;rotatable=0;labelPosition=right;points=[];portConstraint=eastwest;strokeColor=inherit;" vertex="1" parent="INUwDgxH_tMxu924iD4P-148">
          <mxGeometry y="78" width="160" height="8" as="geometry" />
        </mxCell>
        <mxCell id="INUwDgxH_tMxu924iD4P-152" value="&amp;nbsp;+ github" style="text;strokeColor=none;fillColor=none;align=left;verticalAlign=top;spacingLeft=4;spacingRight=4;overflow=hidden;rotatable=0;points=[[0,0.5],[1,0.5]];portConstraint=eastwest;whiteSpace=wrap;html=1;" vertex="1" parent="INUwDgxH_tMxu924iD4P-148">
          <mxGeometry y="86" width="160" height="26" as="geometry" />
        </mxCell>
        <mxCell id="INUwDgxH_tMxu924iD4P-153" value="&amp;nbsp;+ id" style="text;strokeColor=none;fillColor=none;align=left;verticalAlign=top;spacingLeft=4;spacingRight=4;overflow=hidden;rotatable=0;points=[[0,0.5],[1,0.5]];portConstraint=eastwest;whiteSpace=wrap;html=1;" vertex="1" parent="INUwDgxH_tMxu924iD4P-148">
          <mxGeometry y="112" width="160" height="26" as="geometry" />
        </mxCell>
        <mxCell id="INUwDgxH_tMxu924iD4P-154" value="&amp;nbsp;# github=(github)&lt;div&gt;&lt;br&gt;&lt;/div&gt;" style="text;strokeColor=none;fillColor=none;align=left;verticalAlign=top;spacingLeft=4;spacingRight=4;overflow=hidden;rotatable=0;points=[[0,0.5],[1,0.5]];portConstraint=eastwest;whiteSpace=wrap;html=1;" vertex="1" parent="INUwDgxH_tMxu924iD4P-148">
          <mxGeometry y="138" width="160" height="26" as="geometry" />
        </mxCell>
        <mxCell id="INUwDgxH_tMxu924iD4P-155" value="&amp;nbsp;# contact(): string" style="text;strokeColor=none;fillColor=none;align=left;verticalAlign=top;spacingLeft=4;spacingRight=4;overflow=hidden;rotatable=0;points=[[0,0.5],[1,0.5]];portConstraint=eastwest;whiteSpace=wrap;html=1;" vertex="1" parent="INUwDgxH_tMxu924iD4P-148">
          <mxGeometry y="164" width="160" height="26" as="geometry" />
        </mxCell>
        <mxCell id="INUwDgxH_tMxu924iD4P-157" value="Student_short" style="swimlane;fontStyle=1;align=center;verticalAlign=top;childLayout=stackLayout;horizontal=1;startSize=26;horizontalStack=0;resizeParent=1;resizeParentMax=0;resizeLast=0;collapsible=1;marginBottom=0;whiteSpace=wrap;html=1;" vertex="1" parent="WIyWlLk6GJQsqaUBKTNV-1">
          <mxGeometry x="-110" y="570" width="160" height="216" as="geometry" />
        </mxCell>
        <mxCell id="INUwDgxH_tMxu924iD4P-158" value="&amp;nbsp;- contact : string" style="text;strokeColor=none;fillColor=none;align=left;verticalAlign=top;spacingLeft=4;spacingRight=4;overflow=hidden;rotatable=0;points=[[0,0.5],[1,0.5]];portConstraint=eastwest;whiteSpace=wrap;html=1;" vertex="1" parent="INUwDgxH_tMxu924iD4P-157">
          <mxGeometry y="26" width="160" height="26" as="geometry" />
        </mxCell>
        <mxCell id="INUwDgxH_tMxu924iD4P-159" value="&amp;nbsp;- surname_initials: string&lt;hr&gt;" style="text;strokeColor=none;fillColor=none;align=left;verticalAlign=top;spacingLeft=4;spacingRight=4;overflow=hidden;rotatable=0;points=[[0,0.5],[1,0.5]];portConstraint=eastwest;whiteSpace=wrap;html=1;" vertex="1" parent="INUwDgxH_tMxu924iD4P-157">
          <mxGeometry y="52" width="160" height="26" as="geometry" />
        </mxCell>
        <mxCell id="INUwDgxH_tMxu924iD4P-160" value="" style="line;strokeWidth=1;fillColor=none;align=left;verticalAlign=middle;spacingTop=-1;spacingLeft=3;spacingRight=3;rotatable=0;labelPosition=right;points=[];portConstraint=eastwest;strokeColor=inherit;" vertex="1" parent="INUwDgxH_tMxu924iD4P-157">
          <mxGeometry y="78" width="160" height="8" as="geometry" />
        </mxCell>
        <mxCell id="INUwDgxH_tMxu924iD4P-161" value="+ to_s()" style="text;strokeColor=none;fillColor=none;align=left;verticalAlign=top;spacingLeft=4;spacingRight=4;overflow=hidden;rotatable=0;points=[[0,0.5],[1,0.5]];portConstraint=eastwest;whiteSpace=wrap;html=1;" vertex="1" parent="INUwDgxH_tMxu924iD4P-157">
          <mxGeometry y="86" width="160" height="26" as="geometry" />
        </mxCell>
        <mxCell id="INUwDgxH_tMxu924iD4P-162" value="&lt;u&gt;+ create_by_id_and_string&lt;/u&gt;" style="text;strokeColor=none;fillColor=none;align=left;verticalAlign=top;spacingLeft=4;spacingRight=4;overflow=hidden;rotatable=0;points=[[0,0.5],[1,0.5]];portConstraint=eastwest;whiteSpace=wrap;html=1;" vertex="1" parent="INUwDgxH_tMxu924iD4P-157">
          <mxGeometry y="112" width="160" height="26" as="geometry" />
        </mxCell>
        <mxCell id="INUwDgxH_tMxu924iD4P-163" value="&lt;u&gt;+ create_by_student&lt;/u&gt;" style="text;strokeColor=none;fillColor=none;align=left;verticalAlign=top;spacingLeft=4;spacingRight=4;overflow=hidden;rotatable=0;points=[[0,0.5],[1,0.5]];portConstraint=eastwest;whiteSpace=wrap;html=1;" vertex="1" parent="INUwDgxH_tMxu924iD4P-157">
          <mxGeometry y="138" width="160" height="26" as="geometry" />
        </mxCell>
        <mxCell id="INUwDgxH_tMxu924iD4P-164" value="+ contact" style="text;strokeColor=none;fillColor=none;align=left;verticalAlign=top;spacingLeft=4;spacingRight=4;overflow=hidden;rotatable=0;points=[[0,0.5],[1,0.5]];portConstraint=eastwest;whiteSpace=wrap;html=1;" vertex="1" parent="INUwDgxH_tMxu924iD4P-157">
          <mxGeometry y="164" width="160" height="26" as="geometry" />
        </mxCell>
        <mxCell id="INUwDgxH_tMxu924iD4P-165" value="+ surname_initials" style="text;strokeColor=none;fillColor=none;align=left;verticalAlign=top;spacingLeft=4;spacingRight=4;overflow=hidden;rotatable=0;points=[[0,0.5],[1,0.5]];portConstraint=eastwest;whiteSpace=wrap;html=1;" vertex="1" parent="INUwDgxH_tMxu924iD4P-157">
          <mxGeometry y="190" width="160" height="26" as="geometry" />
        </mxCell>
        <mxCell id="INUwDgxH_tMxu924iD4P-166" value="StudentValidator" style="swimlane;fontStyle=1;align=center;verticalAlign=top;childLayout=stackLayout;horizontal=1;startSize=26;horizontalStack=0;resizeParent=1;resizeParentMax=0;resizeLast=0;collapsible=1;marginBottom=0;whiteSpace=wrap;html=1;" vertex="1" parent="WIyWlLk6GJQsqaUBKTNV-1">
          <mxGeometry x="170" y="820" width="160" height="216" as="geometry" />
        </mxCell>
        <mxCell id="INUwDgxH_tMxu924iD4P-167" value="---" style="text;strokeColor=none;fillColor=none;align=left;verticalAlign=top;spacingLeft=4;spacingRight=4;overflow=hidden;rotatable=0;points=[[0,0.5],[1,0.5]];portConstraint=eastwest;whiteSpace=wrap;html=1;" vertex="1" parent="INUwDgxH_tMxu924iD4P-166">
          <mxGeometry y="26" width="160" height="26" as="geometry" />
        </mxCell>
        <mxCell id="INUwDgxH_tMxu924iD4P-168" value="" style="line;strokeWidth=1;fillColor=none;align=left;verticalAlign=middle;spacingTop=-1;spacingLeft=3;spacingRight=3;rotatable=0;labelPosition=right;points=[];portConstraint=eastwest;strokeColor=inherit;" vertex="1" parent="INUwDgxH_tMxu924iD4P-166">
          <mxGeometry y="52" width="160" height="8" as="geometry" />
        </mxCell>
        <mxCell id="INUwDgxH_tMxu924iD4P-169" value="&lt;u&gt;+ valid_github?(): bool&lt;/u&gt;" style="text;strokeColor=none;fillColor=none;align=left;verticalAlign=top;spacingLeft=4;spacingRight=4;overflow=hidden;rotatable=0;points=[[0,0.5],[1,0.5]];portConstraint=eastwest;whiteSpace=wrap;html=1;" vertex="1" parent="INUwDgxH_tMxu924iD4P-166">
          <mxGeometry y="60" width="160" height="26" as="geometry" />
        </mxCell>
        <mxCell id="INUwDgxH_tMxu924iD4P-170" value="&lt;u&gt;+ valid_email?(): bool&lt;/u&gt;" style="text;strokeColor=none;fillColor=none;align=left;verticalAlign=top;spacingLeft=4;spacingRight=4;overflow=hidden;rotatable=0;points=[[0,0.5],[1,0.5]];portConstraint=eastwest;whiteSpace=wrap;html=1;" vertex="1" parent="INUwDgxH_tMxu924iD4P-166">
          <mxGeometry y="86" width="160" height="26" as="geometry" />
        </mxCell>
        <mxCell id="INUwDgxH_tMxu924iD4P-171" value="&lt;u&gt;+ valid_telegram?(): bool&lt;/u&gt;" style="text;strokeColor=none;fillColor=none;align=left;verticalAlign=top;spacingLeft=4;spacingRight=4;overflow=hidden;rotatable=0;points=[[0,0.5],[1,0.5]];portConstraint=eastwest;whiteSpace=wrap;html=1;" vertex="1" parent="INUwDgxH_tMxu924iD4P-166">
          <mxGeometry y="112" width="160" height="26" as="geometry" />
        </mxCell>
        <mxCell id="INUwDgxH_tMxu924iD4P-172" value="&lt;u&gt;+ valid_phone?(): bool&lt;/u&gt;" style="text;strokeColor=none;fillColor=none;align=left;verticalAlign=top;spacingLeft=4;spacingRight=4;overflow=hidden;rotatable=0;points=[[0,0.5],[1,0.5]];portConstraint=eastwest;whiteSpace=wrap;html=1;" vertex="1" parent="INUwDgxH_tMxu924iD4P-166">
          <mxGeometry y="138" width="160" height="26" as="geometry" />
        </mxCell>
        <mxCell id="INUwDgxH_tMxu924iD4P-173" value="&lt;u&gt;+ valid_contact?(): bool&lt;/u&gt;" style="text;strokeColor=none;fillColor=none;align=left;verticalAlign=top;spacingLeft=4;spacingRight=4;overflow=hidden;rotatable=0;points=[[0,0.5],[1,0.5]];portConstraint=eastwest;whiteSpace=wrap;html=1;" vertex="1" parent="INUwDgxH_tMxu924iD4P-166">
          <mxGeometry y="164" width="160" height="26" as="geometry" />
        </mxCell>
        <mxCell id="INUwDgxH_tMxu924iD4P-174" value="&lt;u&gt;+ valid_name?(): bool&lt;/u&gt;" style="text;strokeColor=none;fillColor=none;align=left;verticalAlign=top;spacingLeft=4;spacingRight=4;overflow=hidden;rotatable=0;points=[[0,0.5],[1,0.5]];portConstraint=eastwest;whiteSpace=wrap;html=1;" vertex="1" parent="INUwDgxH_tMxu924iD4P-166">
          <mxGeometry y="190" width="160" height="26" as="geometry" />
        </mxCell>
        <mxCell id="INUwDgxH_tMxu924iD4P-175" value="DataTable" style="swimlane;fontStyle=2;align=center;verticalAlign=top;childLayout=stackLayout;horizontal=1;startSize=26;horizontalStack=0;resizeParent=1;resizeLast=0;collapsible=1;marginBottom=0;rounded=0;shadow=0;strokeWidth=1;" vertex="1" parent="WIyWlLk6GJQsqaUBKTNV-1">
          <mxGeometry x="450" y="250" width="190" height="164" as="geometry">
            <mxRectangle x="230" y="140" width="160" height="26" as="alternateBounds" />
          </mxGeometry>
        </mxCell>
        <mxCell id="INUwDgxH_tMxu924iD4P-176" value="- data" style="text;align=left;verticalAlign=top;spacingLeft=4;spacingRight=4;overflow=hidden;rotatable=0;points=[[0,0.5],[1,0.5]];portConstraint=eastwest;" vertex="1" parent="INUwDgxH_tMxu924iD4P-175">
          <mxGeometry y="26" width="190" height="26" as="geometry" />
        </mxCell>
        <mxCell id="INUwDgxH_tMxu924iD4P-178" value="" style="line;html=1;strokeWidth=1;align=left;verticalAlign=middle;spacingTop=-1;spacingLeft=3;spacingRight=3;rotatable=0;labelPosition=right;points=[];portConstraint=eastwest;" vertex="1" parent="INUwDgxH_tMxu924iD4P-175">
          <mxGeometry y="52" width="190" height="8" as="geometry" />
        </mxCell>
        <mxCell id="INUwDgxH_tMxu924iD4P-179" value="+ get_element(row,column)" style="text;align=left;verticalAlign=top;spacingLeft=4;spacingRight=4;overflow=hidden;rotatable=0;points=[[0,0.5],[1,0.5]];portConstraint=eastwest;" vertex="1" parent="INUwDgxH_tMxu924iD4P-175">
          <mxGeometry y="60" width="190" height="26" as="geometry" />
        </mxCell>
        <mxCell id="INUwDgxH_tMxu924iD4P-186" value="+ count_of_rows()" style="text;align=left;verticalAlign=top;spacingLeft=4;spacingRight=4;overflow=hidden;rotatable=0;points=[[0,0.5],[1,0.5]];portConstraint=eastwest;" vertex="1" parent="INUwDgxH_tMxu924iD4P-175">
          <mxGeometry y="86" width="190" height="26" as="geometry" />
        </mxCell>
        <mxCell id="INUwDgxH_tMxu924iD4P-187" value="+ count_of_columns()" style="text;align=left;verticalAlign=top;spacingLeft=4;spacingRight=4;overflow=hidden;rotatable=0;points=[[0,0.5],[1,0.5]];portConstraint=eastwest;" vertex="1" parent="INUwDgxH_tMxu924iD4P-175">
          <mxGeometry y="112" width="190" height="26" as="geometry" />
        </mxCell>
        <mxCell id="INUwDgxH_tMxu924iD4P-188" value="+ to_s()" style="text;align=left;verticalAlign=top;spacingLeft=4;spacingRight=4;overflow=hidden;rotatable=0;points=[[0,0.5],[1,0.5]];portConstraint=eastwest;" vertex="1" parent="INUwDgxH_tMxu924iD4P-175">
          <mxGeometry y="138" width="190" height="26" as="geometry" />
        </mxCell>
        <mxCell id="INUwDgxH_tMxu924iD4P-193" value="" style="endArrow=none;html=1;rounded=0;startArrow=block;startFill=0;entryX=0.5;entryY=0;entryDx=0;entryDy=0;edgeStyle=elbowEdgeStyle;elbow=vertical;exitX=0.62;exitY=1.077;exitDx=0;exitDy=0;exitPerimeter=0;endSize=7;startSize=20;" edge="1" parent="WIyWlLk6GJQsqaUBKTNV-1" source="INUwDgxH_tMxu924iD4P-48" target="INUwDgxH_tMxu924iD4P-56">
          <mxGeometry width="50" height="50" relative="1" as="geometry">
            <mxPoint x="-310" y="510" as="sourcePoint" />
            <mxPoint x="-174" y="584" as="targetPoint" />
            <Array as="points">
              <mxPoint x="-280" y="332" />
            </Array>
          </mxGeometry>
        </mxCell>
        <mxCell id="INUwDgxH_tMxu924iD4P-194" value="" style="endArrow=none;html=1;rounded=0;startArrow=block;startFill=0;entryX=0.5;entryY=0;entryDx=0;entryDy=0;edgeStyle=elbowEdgeStyle;elbow=vertical;exitX=0.48;exitY=1.128;exitDx=0;exitDy=0;exitPerimeter=0;endSize=7;startSize=20;" edge="1" parent="WIyWlLk6GJQsqaUBKTNV-1" source="INUwDgxH_tMxu924iD4P-48" target="INUwDgxH_tMxu924iD4P-50">
          <mxGeometry width="50" height="50" relative="1" as="geometry">
            <mxPoint x="-420" y="301" as="sourcePoint" />
            <mxPoint x="-530" y="370" as="targetPoint" />
          </mxGeometry>
        </mxCell>
        <mxCell id="INUwDgxH_tMxu924iD4P-195" value="" style="endArrow=none;html=1;rounded=0;startArrow=block;startFill=0;entryX=0.279;entryY=1.038;entryDx=0;entryDy=0;edgeStyle=orthogonalEdgeStyle;exitX=0.25;exitY=0;exitDx=0;exitDy=0;endSize=7;startSize=20;entryPerimeter=0;" edge="1" parent="WIyWlLk6GJQsqaUBKTNV-1" source="INUwDgxH_tMxu924iD4P-148" target="INUwDgxH_tMxu924iD4P-165">
          <mxGeometry width="50" height="50" relative="1" as="geometry">
            <mxPoint x="221" y="770" as="sourcePoint" />
            <mxPoint x="320" y="849" as="targetPoint" />
          </mxGeometry>
        </mxCell>
        <mxCell id="INUwDgxH_tMxu924iD4P-196" value="" style="endArrow=none;html=1;rounded=0;startArrow=block;startFill=0;entryX=1;entryY=0.5;entryDx=0;entryDy=0;edgeStyle=orthogonalEdgeStyle;endSize=7;startSize=20;exitX=0;exitY=0.5;exitDx=0;exitDy=0;elbow=vertical;" edge="1" parent="WIyWlLk6GJQsqaUBKTNV-1" source="INUwDgxH_tMxu924iD4P-154" target="INUwDgxH_tMxu924iD4P-130">
          <mxGeometry width="50" height="50" relative="1" as="geometry">
            <mxPoint x="20" y="991" as="sourcePoint" />
            <mxPoint x="-194" y="990" as="targetPoint" />
          </mxGeometry>
        </mxCell>
        <mxCell id="INUwDgxH_tMxu924iD4P-199" value="" style="endArrow=none;html=1;rounded=0;startArrow=diamondThin;startFill=0;entryX=0;entryY=0.5;entryDx=0;entryDy=0;edgeStyle=elbowEdgeStyle;exitX=1;exitY=0.5;exitDx=0;exitDy=0;endSize=7;startSize=20;" edge="1" parent="WIyWlLk6GJQsqaUBKTNV-1" source="INUwDgxH_tMxu924iD4P-47" target="INUwDgxH_tMxu924iD4P-22">
          <mxGeometry width="50" height="50" relative="1" as="geometry">
            <mxPoint x="-344" y="304" as="sourcePoint" />
            <mxPoint x="-210" y="380" as="targetPoint" />
          </mxGeometry>
        </mxCell>
        <mxCell id="INUwDgxH_tMxu924iD4P-202" value="" style="endArrow=classic;html=1;rounded=0;dashed=1;entryX=0;entryY=0.5;entryDx=0;entryDy=0;exitX=1;exitY=0.5;exitDx=0;exitDy=0;edgeStyle=elbowEdgeStyle;" edge="1" parent="WIyWlLk6GJQsqaUBKTNV-1" source="zkfFHV4jXpPFQw0GAbJ--5" target="INUwDgxH_tMxu924iD4P-179">
          <mxGeometry width="50" height="50" relative="1" as="geometry">
            <mxPoint x="460" y="520" as="sourcePoint" />
            <mxPoint x="510" y="510" as="targetPoint" />
          </mxGeometry>
        </mxCell>
        <mxCell id="INUwDgxH_tMxu924iD4P-203" value="" style="endArrow=none;html=1;rounded=0;startArrow=block;startFill=0;entryX=0.5;entryY=0;entryDx=0;entryDy=0;edgeStyle=elbowEdgeStyle;elbow=vertical;endSize=7;startSize=20;exitX=0.472;exitY=0.91;exitDx=0;exitDy=0;exitPerimeter=0;" edge="1" parent="WIyWlLk6GJQsqaUBKTNV-1" source="INUwDgxH_tMxu924iD4P-5" target="INUwDgxH_tMxu924iD4P-6">
          <mxGeometry width="50" height="50" relative="1" as="geometry">
            <mxPoint x="278" y="534" as="sourcePoint" />
            <mxPoint x="464" y="616" as="targetPoint" />
          </mxGeometry>
        </mxCell>
        <mxCell id="INUwDgxH_tMxu924iD4P-204" value="" style="endArrow=none;html=1;rounded=0;startArrow=diamondThin;startFill=0;entryX=1;entryY=0.5;entryDx=0;entryDy=0;edgeStyle=elbowEdgeStyle;exitX=0;exitY=0.5;exitDx=0;exitDy=0;endSize=7;startSize=20;" edge="1" parent="WIyWlLk6GJQsqaUBKTNV-1" source="INUwDgxH_tMxu924iD4P-117" target="INUwDgxH_tMxu924iD4P-108">
          <mxGeometry width="50" height="50" relative="1" as="geometry">
            <mxPoint x="-240" y="183" as="sourcePoint" />
            <mxPoint x="-50" y="115" as="targetPoint" />
          </mxGeometry>
        </mxCell>
        <mxCell id="INUwDgxH_tMxu924iD4P-205" value="" style="endArrow=classic;html=1;rounded=0;dashed=1;entryX=0;entryY=0.5;entryDx=0;entryDy=0;exitX=0;exitY=0.5;exitDx=0;exitDy=0;edgeStyle=elbowEdgeStyle;" edge="1" parent="WIyWlLk6GJQsqaUBKTNV-1" source="INUwDgxH_tMxu924iD4P-120" target="INUwDgxH_tMxu924iD4P-128">
          <mxGeometry width="50" height="50" relative="1" as="geometry">
            <mxPoint x="-590" y="836" as="sourcePoint" />
            <mxPoint x="-520" y="790" as="targetPoint" />
            <Array as="points">
              <mxPoint x="-510" y="790" />
            </Array>
          </mxGeometry>
        </mxCell>
        <mxCell id="INUwDgxH_tMxu924iD4P-206" value="" style="endArrow=classic;html=1;rounded=0;dashed=1;entryX=0;entryY=0.5;entryDx=0;entryDy=0;exitX=1;exitY=0.5;exitDx=0;exitDy=0;edgeStyle=elbowEdgeStyle;" edge="1" parent="WIyWlLk6GJQsqaUBKTNV-1" source="INUwDgxH_tMxu924iD4P-114" target="INUwDgxH_tMxu924iD4P-7">
          <mxGeometry width="50" height="50" relative="1" as="geometry">
            <mxPoint x="-440" y="704" as="sourcePoint" />
            <mxPoint x="-470" y="899" as="targetPoint" />
            <Array as="points">
              <mxPoint x="120" y="556" />
            </Array>
          </mxGeometry>
        </mxCell>
        <mxCell id="INUwDgxH_tMxu924iD4P-207" value="" style="endArrow=classic;html=1;rounded=0;dashed=1;entryX=0.854;entryY=0.006;entryDx=0;entryDy=0;elbow=vertical;entryPerimeter=0;" edge="1" parent="WIyWlLk6GJQsqaUBKTNV-1" target="INUwDgxH_tMxu924iD4P-124">
          <mxGeometry width="50" height="50" relative="1" as="geometry">
            <mxPoint x="9" y="483" as="sourcePoint" />
            <mxPoint x="-209.99999999999946" y="792.8800000000003" as="targetPoint" />
            <Array as="points">
              <mxPoint x="9" y="540" />
              <mxPoint x="-200" y="540" />
            </Array>
          </mxGeometry>
        </mxCell>
        <mxCell id="INUwDgxH_tMxu924iD4P-208" value="" style="endArrow=classic;html=1;rounded=0;dashed=1;entryX=0.015;entryY=0.107;entryDx=0;entryDy=0;exitX=1;exitY=0.5;exitDx=0;exitDy=0;edgeStyle=elbowEdgeStyle;entryPerimeter=0;" edge="1" parent="WIyWlLk6GJQsqaUBKTNV-1" source="INUwDgxH_tMxu924iD4P-33" target="INUwDgxH_tMxu924iD4P-6">
          <mxGeometry width="50" height="50" relative="1" as="geometry">
            <mxPoint x="-220" y="566" as="sourcePoint" />
            <mxPoint x="224" y="664" as="targetPoint" />
            <Array as="points">
              <mxPoint x="160" y="540" />
            </Array>
          </mxGeometry>
        </mxCell>
        <mxCell id="INUwDgxH_tMxu924iD4P-210" value="" style="endArrow=classic;html=1;rounded=0;dashed=1;entryX=1;entryY=0.5;entryDx=0;entryDy=0;edgeStyle=orthogonalEdgeStyle;elbow=vertical;exitX=0;exitY=0.5;exitDx=0;exitDy=0;" edge="1" parent="WIyWlLk6GJQsqaUBKTNV-1" source="INUwDgxH_tMxu924iD4P-16" target="INUwDgxH_tMxu924iD4P-164">
          <mxGeometry width="50" height="50" relative="1" as="geometry">
            <mxPoint x="500" y="810" as="sourcePoint" />
            <mxPoint x="354" y="755" as="targetPoint" />
          </mxGeometry>
        </mxCell>
        <mxCell id="INUwDgxH_tMxu924iD4P-213" value="" style="endArrow=classic;html=1;rounded=0;dashed=1;entryX=0.829;entryY=0.005;entryDx=0;entryDy=0;exitX=0.716;exitY=1.049;exitDx=0;exitDy=0;edgeStyle=elbowEdgeStyle;exitPerimeter=0;elbow=vertical;entryPerimeter=0;" edge="1" parent="WIyWlLk6GJQsqaUBKTNV-1" source="INUwDgxH_tMxu924iD4P-33" target="INUwDgxH_tMxu924iD4P-157">
          <mxGeometry width="50" height="50" relative="1" as="geometry">
            <mxPoint x="-220" y="566" as="sourcePoint" />
            <mxPoint x="224" y="664" as="targetPoint" />
          </mxGeometry>
        </mxCell>
        <mxCell id="INUwDgxH_tMxu924iD4P-215" value="" style="endArrow=classic;html=1;rounded=0;dashed=1;entryX=0;entryY=0.5;entryDx=0;entryDy=0;exitX=1;exitY=0.5;exitDx=0;exitDy=0;elbow=vertical;edgeStyle=orthogonalEdgeStyle;" edge="1" parent="WIyWlLk6GJQsqaUBKTNV-1" source="INUwDgxH_tMxu924iD4P-118" target="INUwDgxH_tMxu924iD4P-159">
          <mxGeometry width="50" height="50" relative="1" as="geometry">
            <mxPoint x="88" y="495" as="sourcePoint" />
            <mxPoint x="33" y="581" as="targetPoint" />
          </mxGeometry>
        </mxCell>
        <mxCell id="INUwDgxH_tMxu924iD4P-216" value="IStorageList" style="swimlane;fontStyle=2;align=center;verticalAlign=top;childLayout=stackLayout;horizontal=1;startSize=26;horizontalStack=0;resizeParent=1;resizeLast=0;collapsible=1;marginBottom=0;rounded=0;shadow=0;strokeWidth=1;" vertex="1" parent="WIyWlLk6GJQsqaUBKTNV-1">
          <mxGeometry x="-960" y="-140" width="230" height="190" as="geometry">
            <mxRectangle x="230" y="140" width="160" height="26" as="alternateBounds" />
          </mxGeometry>
        </mxCell>
        <mxCell id="INUwDgxH_tMxu924iD4P-217" value="-" style="text;align=left;verticalAlign=top;spacingLeft=4;spacingRight=4;overflow=hidden;rotatable=0;points=[[0,0.5],[1,0.5]];portConstraint=eastwest;fontStyle=0" vertex="1" parent="INUwDgxH_tMxu924iD4P-216">
          <mxGeometry y="26" width="230" height="26" as="geometry" />
        </mxCell>
        <mxCell id="INUwDgxH_tMxu924iD4P-218" value="" style="line;html=1;strokeWidth=1;align=left;verticalAlign=middle;spacingTop=-1;spacingLeft=3;spacingRight=3;rotatable=0;labelPosition=right;points=[];portConstraint=eastwest;" vertex="1" parent="INUwDgxH_tMxu924iD4P-216">
          <mxGeometry y="52" width="230" height="8" as="geometry" />
        </mxCell>
        <mxCell id="INUwDgxH_tMxu924iD4P-219" value="+ get_student_by_id(id)" style="text;align=left;verticalAlign=top;spacingLeft=4;spacingRight=4;overflow=hidden;rotatable=0;points=[[0,0.5],[1,0.5]];portConstraint=eastwest;fontStyle=3" vertex="1" parent="INUwDgxH_tMxu924iD4P-216">
          <mxGeometry y="60" width="230" height="26" as="geometry" />
        </mxCell>
        <mxCell id="INUwDgxH_tMxu924iD4P-220" value="+ get_student_short_list(elems,pages)" style="text;align=left;verticalAlign=top;spacingLeft=4;spacingRight=4;overflow=hidden;rotatable=0;points=[[0,0.5],[1,0.5]];portConstraint=eastwest;fontStyle=3" vertex="1" parent="INUwDgxH_tMxu924iD4P-216">
          <mxGeometry y="86" width="230" height="26" as="geometry" />
        </mxCell>
        <mxCell id="INUwDgxH_tMxu924iD4P-221" value="+ add_student_in_list(student)" style="text;align=left;verticalAlign=top;spacingLeft=4;spacingRight=4;overflow=hidden;rotatable=0;points=[[0,0.5],[1,0.5]];portConstraint=eastwest;fontStyle=3" vertex="1" parent="INUwDgxH_tMxu924iD4P-216">
          <mxGeometry y="112" width="230" height="26" as="geometry" />
        </mxCell>
        <mxCell id="INUwDgxH_tMxu924iD4P-222" value="+ change_by_id(id,student)" style="text;align=left;verticalAlign=top;spacingLeft=4;spacingRight=4;overflow=hidden;rotatable=0;points=[[0,0.5],[1,0.5]];portConstraint=eastwest;fontStyle=3" vertex="1" parent="INUwDgxH_tMxu924iD4P-216">
          <mxGeometry y="138" width="230" height="26" as="geometry" />
        </mxCell>
        <mxCell id="INUwDgxH_tMxu924iD4P-223" value="+ delete(id)" style="text;align=left;verticalAlign=top;spacingLeft=4;spacingRight=4;overflow=hidden;rotatable=0;points=[[0,0.5],[1,0.5]];portConstraint=eastwest;fontStyle=3" vertex="1" parent="INUwDgxH_tMxu924iD4P-216">
          <mxGeometry y="164" width="230" height="26" as="geometry" />
        </mxCell>
        <mxCell id="INUwDgxH_tMxu924iD4P-224" value="StudentListDBAdapter" style="swimlane;fontStyle=2;align=center;verticalAlign=top;childLayout=stackLayout;horizontal=1;startSize=26;horizontalStack=0;resizeParent=1;resizeLast=0;collapsible=1;marginBottom=0;rounded=0;shadow=0;strokeWidth=1;" vertex="1" parent="WIyWlLk6GJQsqaUBKTNV-1">
          <mxGeometry x="-1060" y="141" width="220" height="190" as="geometry">
            <mxRectangle x="230" y="140" width="160" height="26" as="alternateBounds" />
          </mxGeometry>
        </mxCell>
        <mxCell id="INUwDgxH_tMxu924iD4P-225" value="-" style="text;align=left;verticalAlign=top;spacingLeft=4;spacingRight=4;overflow=hidden;rotatable=0;points=[[0,0.5],[1,0.5]];portConstraint=eastwest;fontStyle=0" vertex="1" parent="INUwDgxH_tMxu924iD4P-224">
          <mxGeometry y="26" width="220" height="26" as="geometry" />
        </mxCell>
        <mxCell id="INUwDgxH_tMxu924iD4P-226" value="" style="line;html=1;strokeWidth=1;align=left;verticalAlign=middle;spacingTop=-1;spacingLeft=3;spacingRight=3;rotatable=0;labelPosition=right;points=[];portConstraint=eastwest;" vertex="1" parent="INUwDgxH_tMxu924iD4P-224">
          <mxGeometry y="52" width="220" height="8" as="geometry" />
        </mxCell>
        <mxCell id="INUwDgxH_tMxu924iD4P-227" value="+ get_student_by_id(id)" style="text;align=left;verticalAlign=top;spacingLeft=4;spacingRight=4;overflow=hidden;rotatable=0;points=[[0,0.5],[1,0.5]];portConstraint=eastwest;" vertex="1" parent="INUwDgxH_tMxu924iD4P-224">
          <mxGeometry y="60" width="220" height="26" as="geometry" />
        </mxCell>
        <mxCell id="INUwDgxH_tMxu924iD4P-228" value="+ get_student_short_list(elems,pages)" style="text;align=left;verticalAlign=top;spacingLeft=4;spacingRight=4;overflow=hidden;rotatable=0;points=[[0,0.5],[1,0.5]];portConstraint=eastwest;" vertex="1" parent="INUwDgxH_tMxu924iD4P-224">
          <mxGeometry y="86" width="220" height="26" as="geometry" />
        </mxCell>
        <mxCell id="INUwDgxH_tMxu924iD4P-229" value="+ add_student_in_list(student)" style="text;align=left;verticalAlign=top;spacingLeft=4;spacingRight=4;overflow=hidden;rotatable=0;points=[[0,0.5],[1,0.5]];portConstraint=eastwest;" vertex="1" parent="INUwDgxH_tMxu924iD4P-224">
          <mxGeometry y="112" width="220" height="26" as="geometry" />
        </mxCell>
        <mxCell id="INUwDgxH_tMxu924iD4P-230" value="+ change_by_id(id,student)" style="text;align=left;verticalAlign=top;spacingLeft=4;spacingRight=4;overflow=hidden;rotatable=0;points=[[0,0.5],[1,0.5]];portConstraint=eastwest;" vertex="1" parent="INUwDgxH_tMxu924iD4P-224">
          <mxGeometry y="138" width="220" height="26" as="geometry" />
        </mxCell>
        <mxCell id="INUwDgxH_tMxu924iD4P-231" value="+ delete(id)" style="text;align=left;verticalAlign=top;spacingLeft=4;spacingRight=4;overflow=hidden;rotatable=0;points=[[0,0.5],[1,0.5]];portConstraint=eastwest;" vertex="1" parent="INUwDgxH_tMxu924iD4P-224">
          <mxGeometry y="164" width="220" height="26" as="geometry" />
        </mxCell>
        <mxCell id="INUwDgxH_tMxu924iD4P-232" value="StudentListSerializerAdapter" style="swimlane;fontStyle=2;align=center;verticalAlign=top;childLayout=stackLayout;horizontal=1;startSize=26;horizontalStack=0;resizeParent=1;resizeLast=0;collapsible=1;marginBottom=0;rounded=0;shadow=0;strokeWidth=1;" vertex="1" parent="WIyWlLk6GJQsqaUBKTNV-1">
          <mxGeometry x="-770" y="140" width="220" height="190" as="geometry">
            <mxRectangle x="230" y="140" width="160" height="26" as="alternateBounds" />
          </mxGeometry>
        </mxCell>
        <mxCell id="INUwDgxH_tMxu924iD4P-233" value="-" style="text;align=left;verticalAlign=top;spacingLeft=4;spacingRight=4;overflow=hidden;rotatable=0;points=[[0,0.5],[1,0.5]];portConstraint=eastwest;fontStyle=0" vertex="1" parent="INUwDgxH_tMxu924iD4P-232">
          <mxGeometry y="26" width="220" height="26" as="geometry" />
        </mxCell>
        <mxCell id="INUwDgxH_tMxu924iD4P-234" value="" style="line;html=1;strokeWidth=1;align=left;verticalAlign=middle;spacingTop=-1;spacingLeft=3;spacingRight=3;rotatable=0;labelPosition=right;points=[];portConstraint=eastwest;" vertex="1" parent="INUwDgxH_tMxu924iD4P-232">
          <mxGeometry y="52" width="220" height="8" as="geometry" />
        </mxCell>
        <mxCell id="INUwDgxH_tMxu924iD4P-235" value="+ get_student_by_id(id)" style="text;align=left;verticalAlign=top;spacingLeft=4;spacingRight=4;overflow=hidden;rotatable=0;points=[[0,0.5],[1,0.5]];portConstraint=eastwest;" vertex="1" parent="INUwDgxH_tMxu924iD4P-232">
          <mxGeometry y="60" width="220" height="26" as="geometry" />
        </mxCell>
        <mxCell id="INUwDgxH_tMxu924iD4P-236" value="+ get_student_short_list(elems,pages)" style="text;align=left;verticalAlign=top;spacingLeft=4;spacingRight=4;overflow=hidden;rotatable=0;points=[[0,0.5],[1,0.5]];portConstraint=eastwest;" vertex="1" parent="INUwDgxH_tMxu924iD4P-232">
          <mxGeometry y="86" width="220" height="26" as="geometry" />
        </mxCell>
        <mxCell id="INUwDgxH_tMxu924iD4P-237" value="+ add_student_in_list(student)" style="text;align=left;verticalAlign=top;spacingLeft=4;spacingRight=4;overflow=hidden;rotatable=0;points=[[0,0.5],[1,0.5]];portConstraint=eastwest;" vertex="1" parent="INUwDgxH_tMxu924iD4P-232">
          <mxGeometry y="112" width="220" height="26" as="geometry" />
        </mxCell>
        <mxCell id="INUwDgxH_tMxu924iD4P-238" value="+ change_by_id(id,student)" style="text;align=left;verticalAlign=top;spacingLeft=4;spacingRight=4;overflow=hidden;rotatable=0;points=[[0,0.5],[1,0.5]];portConstraint=eastwest;" vertex="1" parent="INUwDgxH_tMxu924iD4P-232">
          <mxGeometry y="138" width="220" height="26" as="geometry" />
        </mxCell>
        <mxCell id="INUwDgxH_tMxu924iD4P-239" value="+ delete(id)" style="text;align=left;verticalAlign=top;spacingLeft=4;spacingRight=4;overflow=hidden;rotatable=0;points=[[0,0.5],[1,0.5]];portConstraint=eastwest;" vertex="1" parent="INUwDgxH_tMxu924iD4P-232">
          <mxGeometry y="164" width="220" height="26" as="geometry" />
        </mxCell>
        <mxCell id="INUwDgxH_tMxu924iD4P-240" value="" style="endArrow=none;html=1;rounded=0;startArrow=block;startFill=0;entryX=0.5;entryY=0;entryDx=0;entryDy=0;edgeStyle=elbowEdgeStyle;elbow=vertical;exitX=0.354;exitY=0.972;exitDx=0;exitDy=0;exitPerimeter=0;endSize=7;startSize=20;" edge="1" parent="WIyWlLk6GJQsqaUBKTNV-1" source="INUwDgxH_tMxu924iD4P-223" target="INUwDgxH_tMxu924iD4P-224">
          <mxGeometry width="50" height="50" relative="1" as="geometry">
            <mxPoint x="-1054" y="40" as="sourcePoint" />
            <mxPoint x="-1170" y="115" as="targetPoint" />
          </mxGeometry>
        </mxCell>
        <mxCell id="INUwDgxH_tMxu924iD4P-241" value="" style="endArrow=none;html=1;rounded=0;startArrow=block;startFill=0;entryX=0.5;entryY=0;entryDx=0;entryDy=0;edgeStyle=elbowEdgeStyle;elbow=vertical;exitX=0.538;exitY=0.939;exitDx=0;exitDy=0;exitPerimeter=0;endSize=7;startSize=20;" edge="1" parent="WIyWlLk6GJQsqaUBKTNV-1" source="INUwDgxH_tMxu924iD4P-223" target="INUwDgxH_tMxu924iD4P-232">
          <mxGeometry width="50" height="50" relative="1" as="geometry">
            <mxPoint x="-884" y="63" as="sourcePoint" />
            <mxPoint x="-1030" y="150" as="targetPoint" />
          </mxGeometry>
        </mxCell>
        <mxCell id="INUwDgxH_tMxu924iD4P-250" value="StudentList" style="swimlane;fontStyle=2;align=center;verticalAlign=top;childLayout=stackLayout;horizontal=1;startSize=26;horizontalStack=0;resizeParent=1;resizeLast=0;collapsible=1;marginBottom=0;rounded=0;shadow=0;strokeWidth=1;" vertex="1" parent="WIyWlLk6GJQsqaUBKTNV-1">
          <mxGeometry x="-590" y="-140" width="220" height="190" as="geometry">
            <mxRectangle x="230" y="140" width="160" height="26" as="alternateBounds" />
          </mxGeometry>
        </mxCell>
        <mxCell id="INUwDgxH_tMxu924iD4P-251" value="-" style="text;align=left;verticalAlign=top;spacingLeft=4;spacingRight=4;overflow=hidden;rotatable=0;points=[[0,0.5],[1,0.5]];portConstraint=eastwest;fontStyle=0" vertex="1" parent="INUwDgxH_tMxu924iD4P-250">
          <mxGeometry y="26" width="220" height="26" as="geometry" />
        </mxCell>
        <mxCell id="INUwDgxH_tMxu924iD4P-252" value="" style="line;html=1;strokeWidth=1;align=left;verticalAlign=middle;spacingTop=-1;spacingLeft=3;spacingRight=3;rotatable=0;labelPosition=right;points=[];portConstraint=eastwest;" vertex="1" parent="INUwDgxH_tMxu924iD4P-250">
          <mxGeometry y="52" width="220" height="8" as="geometry" />
        </mxCell>
        <mxCell id="INUwDgxH_tMxu924iD4P-253" value="+ get_student_by_id(id)" style="text;align=left;verticalAlign=top;spacingLeft=4;spacingRight=4;overflow=hidden;rotatable=0;points=[[0,0.5],[1,0.5]];portConstraint=eastwest;" vertex="1" parent="INUwDgxH_tMxu924iD4P-250">
          <mxGeometry y="60" width="220" height="26" as="geometry" />
        </mxCell>
        <mxCell id="INUwDgxH_tMxu924iD4P-254" value="+ get_student_short_list(elems,pages)" style="text;align=left;verticalAlign=top;spacingLeft=4;spacingRight=4;overflow=hidden;rotatable=0;points=[[0,0.5],[1,0.5]];portConstraint=eastwest;" vertex="1" parent="INUwDgxH_tMxu924iD4P-250">
          <mxGeometry y="86" width="220" height="26" as="geometry" />
        </mxCell>
        <mxCell id="INUwDgxH_tMxu924iD4P-255" value="+ add_student_in_list(student)" style="text;align=left;verticalAlign=top;spacingLeft=4;spacingRight=4;overflow=hidden;rotatable=0;points=[[0,0.5],[1,0.5]];portConstraint=eastwest;" vertex="1" parent="INUwDgxH_tMxu924iD4P-250">
          <mxGeometry y="112" width="220" height="26" as="geometry" />
        </mxCell>
        <mxCell id="INUwDgxH_tMxu924iD4P-256" value="+ change_by_id(id,student)" style="text;align=left;verticalAlign=top;spacingLeft=4;spacingRight=4;overflow=hidden;rotatable=0;points=[[0,0.5],[1,0.5]];portConstraint=eastwest;" vertex="1" parent="INUwDgxH_tMxu924iD4P-250">
          <mxGeometry y="138" width="220" height="26" as="geometry" />
        </mxCell>
        <mxCell id="INUwDgxH_tMxu924iD4P-257" value="+ delete(id)" style="text;align=left;verticalAlign=top;spacingLeft=4;spacingRight=4;overflow=hidden;rotatable=0;points=[[0,0.5],[1,0.5]];portConstraint=eastwest;" vertex="1" parent="INUwDgxH_tMxu924iD4P-250">
          <mxGeometry y="164" width="220" height="26" as="geometry" />
        </mxCell>
        <mxCell id="INUwDgxH_tMxu924iD4P-266" value="" style="endArrow=none;html=1;rounded=0;startArrow=diamondThin;startFill=0;entryX=0;entryY=0.5;entryDx=0;entryDy=0;edgeStyle=elbowEdgeStyle;exitX=1;exitY=0.5;exitDx=0;exitDy=0;endSize=7;startSize=20;" edge="1" parent="WIyWlLk6GJQsqaUBKTNV-1" source="INUwDgxH_tMxu924iD4P-217" target="INUwDgxH_tMxu924iD4P-251">
          <mxGeometry width="50" height="50" relative="1" as="geometry">
            <mxPoint x="-930" y="-334" as="sourcePoint" />
            <mxPoint x="-1070" y="-360" as="targetPoint" />
          </mxGeometry>
        </mxCell>
        <mxCell id="INUwDgxH_tMxu924iD4P-268" value="" style="endArrow=none;html=1;rounded=0;startArrow=diamondThin;startFill=0;entryX=0.876;entryY=-0.014;entryDx=0;entryDy=0;edgeStyle=elbowEdgeStyle;exitX=0;exitY=0.5;exitDx=0;exitDy=0;endSize=7;startSize=20;elbow=vertical;entryPerimeter=0;" edge="1" parent="WIyWlLk6GJQsqaUBKTNV-1" source="INUwDgxH_tMxu924iD4P-18" target="INUwDgxH_tMxu924iD4P-232">
          <mxGeometry width="50" height="50" relative="1" as="geometry">
            <mxPoint x="-970" y="438" as="sourcePoint" />
            <mxPoint x="-780" y="370" as="targetPoint" />
            <Array as="points">
              <mxPoint x="-340" y="99" />
            </Array>
          </mxGeometry>
        </mxCell>
        <mxCell id="INUwDgxH_tMxu924iD4P-269" value="" style="endArrow=none;html=1;rounded=0;startArrow=diamondThin;startFill=0;entryX=0.735;entryY=1.024;entryDx=0;entryDy=0;edgeStyle=elbowEdgeStyle;exitX=0.25;exitY=0;exitDx=0;exitDy=0;endSize=7;startSize=20;entryPerimeter=0;elbow=vertical;" edge="1" parent="WIyWlLk6GJQsqaUBKTNV-1" source="INUwDgxH_tMxu924iD4P-105" target="INUwDgxH_tMxu924iD4P-231">
          <mxGeometry width="50" height="50" relative="1" as="geometry">
            <mxPoint x="-930" y="518.5" as="sourcePoint" />
            <mxPoint x="-907" y="333.5" as="targetPoint" />
          </mxGeometry>
        </mxCell>
      </root>
    </mxGraphModel>
  </diagram>
</mxfile>
